<svg xmlns="http://www.w3.org/2000/svg" xmlns:xlink="http://www.w3.org/1999/xlink" width="468.65000000000003" height="90.20478137763104" viewBox="0 0 369.6666666666667 71.15267438229867" class="css-1j8o68f"><defs id="SvgjsDefs1036"></defs><g id="SvgjsG1037" featurekey="G09qjj-0" transform="matrix(0.9505016297877371,0,0,0.9505016297877371,-3.957886552896541,-10.047746477476)" fill="#86efac"><g xmlns="http://www.w3.org/2000/svg"><path fill="#86efac" d="M91.829,61.601c-0.005-0.125-0.03-0.248-0.076-0.366c-0.006-0.015-0.009-0.031-0.015-0.046   c-0.037-0.085-0.083-0.167-0.142-0.241c-0.021-0.027-0.049-0.049-0.072-0.073c-0.017-0.019-0.032-0.035-0.051-0.052   c-0.093-0.087-0.197-0.159-0.313-0.21c-0.018-0.008-0.036-0.013-0.055-0.02c-0.128-0.049-0.263-0.081-0.402-0.081   c-0.002,0-0.003,0-0.004,0l-7.392,0.023l-0.008-1.992l7.392-0.024c0.139-0.001,0.271-0.033,0.397-0.082   c0.022-0.008,0.044-0.014,0.065-0.023c0.112-0.051,0.214-0.121,0.305-0.207c0.021-0.02,0.04-0.039,0.06-0.061   c0.022-0.024,0.048-0.045,0.068-0.071c0.058-0.074,0.103-0.155,0.139-0.239c0.007-0.016,0.01-0.031,0.016-0.047   c0.046-0.121,0.071-0.249,0.074-0.379c0.001-0.01,0.006-0.019,0.006-0.028c0-0.004-0.002-0.007-0.002-0.011   c-0.002-0.092-0.012-0.185-0.036-0.275c-1.135-4.29-5.083-7.277-9.609-7.277c-0.012,0-0.024,0-0.035,0   c-3.267,0.012-6.32,1.638-8.154,4.264l-10.782-0.023c3.843-3.679,6.289-8.784,6.497-14.46c2.869-0.804,4.927-2.909,4.927-5.382   c0-3.043-3.11-5.532-7.022-5.718c-0.582-9.98-8.863-17.929-18.987-17.929c-10.125,0-18.404,7.948-18.986,17.929   c-3.911,0.186-7.021,2.675-7.021,5.718c0,2.473,2.058,4.578,4.926,5.382c0.209,5.673,2.652,10.775,6.489,14.453H20.655   l-4.731-1.746c-0.221-0.08-0.461-0.092-0.689-0.03L5.013,55.052c-0.492,0.134-0.835,0.581-0.835,1.091l-0.014,6.305   c-0.001,0.484,0.306,0.915,0.763,1.073l10.209,3.527c0.12,0.041,0.245,0.063,0.37,0.063c0.13,0,0.262-0.023,0.386-0.068   l4.738-1.719l7-0.009c0.485,1.757,1.189,3.435,2.107,4.989l-0.854,1.064c-0.631,0.785-1.259,1.566-1.881,2.342   c-0.258,0.32-0.32,0.753-0.167,1.134l0.007,0.021c0.023,0.064,0.073,0.199,0.187,0.354c0.045,0.06,0.088,0.118,0.131,0.178   c0.125,0.171,0.254,0.348,0.404,0.527c1.135,1.346,2.451,2.648,3.912,3.87c0.164,0.137,0.324,0.275,0.484,0.416l0.236,0.205   c0.052,0.044,0.108,0.085,0.169,0.12l0.095,0.055c0.437,0.261,0.994,0.198,1.361-0.153c0.034-0.032,0.065-0.064,0.098-0.096   c0.016-0.016,0.03-0.032,0.046-0.047c1.232-0.963,2.281-1.81,3.242-2.62c1.649,0.946,3.405,1.655,5.228,2.112l0.393,4.154   c0.01,0.082,0.022,0.164,0.034,0.232l0.006,0.039c0.072,0.499,0.467,0.889,0.964,0.959c1.243,0.173,2.436,0.259,3.59,0.259   c1.431,0,2.807-0.132,4.149-0.399c0.49-0.099,0.858-0.506,0.906-1.004l0.417-4.37c1.721-0.474,3.365-1.167,4.9-2.063l3.404,2.789   c0.413,0.338,1.007,0.342,1.425,0.01c1.631-1.302,3.719-3.101,5.393-5.482c0.294-0.415,0.272-0.977-0.051-1.371   c-0.927-1.126-1.849-2.248-2.771-3.372c0.009-0.015,0.017-0.029,0.025-0.045c0.918-1.591,1.601-3.285,2.063-5.041l6.737-0.022   c1.846,2.605,4.896,4.21,8.151,4.21c0.012,0,0.022,0,0.035,0c4.54-0.015,8.486-3.034,9.595-7.343   c0.022-0.09,0.033-0.181,0.034-0.271c0-0.006,0.003-0.01,0.003-0.016C91.836,61.626,91.829,61.615,91.829,61.601z M50.701,12.98   v10.882c0,0.924-0.751,1.675-1.675,1.675h-0.819c-0.924,0-1.674-0.751-1.674-1.675V12.98c0.684-0.085,1.376-0.144,2.083-0.144   S50.016,12.895,50.701,12.98z M24.874,34.216c0-1.881,2.389-3.47,5.219-3.47h0.612c0.627,0,1.133-0.507,1.133-1.133   c0-7.996,5.626-14.691,13.125-16.364v10.612c0,1.789,1.455,3.244,3.243,3.244h0.819c1.789,0,3.244-1.455,3.244-3.244V13.25   c7.499,1.674,13.125,8.369,13.125,16.364c0,0.626,0.507,1.133,1.132,1.133h0.612c2.829,0,5.221,1.589,5.221,3.47   c0,1.88-2.392,3.469-5.221,3.469h-3.155H33.25h-3.156C27.263,37.685,24.874,36.096,24.874,34.216z M29.817,39.94   c0.093,0.003,0.183,0.011,0.276,0.011h3.156h30.734h3.155c0.093,0,0.184-0.008,0.276-0.011c-0.586,9.874-8.78,17.733-18.8,17.733   C38.598,57.673,30.403,49.814,29.817,39.94z M15.496,64.776l-9.065-3.132l0.011-4.632l9.038-2.456l3.837,1.416l-0.01,4.714   l-0.006,2.71L15.496,64.776z M63.257,68.988c-0.125,0.216-0.258,0.435-0.407,0.671c-0.262,0.413-0.229,0.948,0.08,1.325   c0.907,1.104,1.813,2.207,2.722,3.313c-1.178,1.508-2.535,2.754-3.732,3.748l-3.312-2.713c-0.379-0.312-0.916-0.343-1.327-0.078   c-1.581,1.01-3.302,1.768-5.118,2.254c-0.193,0.052-0.387,0.101-0.581,0.146c-0.474,0.112-0.822,0.512-0.868,0.995l-0.411,4.305   c-1.669,0.252-3.411,0.279-5.285,0.081l-0.404-4.275c-0.047-0.496-0.412-0.902-0.897-1.003c-1.898-0.393-3.722-1.089-5.422-2.07   c-0.213-0.122-0.423-0.252-0.601-0.362c-0.419-0.264-0.961-0.222-1.338,0.103c-0.987,0.848-2.052,1.719-3.321,2.719   c-0.034-0.029-0.068-0.058-0.103-0.088c-1.381-1.154-2.569-2.328-3.632-3.589c0.447-0.558,0.896-1.117,1.349-1.68l1.357-1.688   c0.306-0.381,0.333-0.915,0.068-1.325c-0.098-0.149-0.191-0.301-0.284-0.452c-0.887-1.467-1.564-3.058-2.012-4.729   c-0.021-0.081-0.043-0.163-0.063-0.243c-0.033-0.132-0.063-0.264-0.095-0.396c-0.01-0.044-0.039-0.077-0.054-0.119   c-0.023-0.071-0.054-0.135-0.09-0.198c-0.03-0.052-0.06-0.1-0.098-0.145c-0.066-0.084-0.143-0.153-0.23-0.216   c-0.02-0.014-0.038-0.027-0.059-0.04c-0.114-0.07-0.238-0.117-0.374-0.144c-0.002,0-0.004-0.001-0.006-0.001   c-0.069-0.014-0.133-0.042-0.207-0.042c0,0,0,0-0.001,0l-6.934,0.008l0.014-6.739h15.219c3.375,2.286,7.441,3.623,11.815,3.623   c4.374,0,8.44-1.337,11.814-3.622l13.01,0.028v6.448l-7.032,0.024c-0.226,0.001-0.424,0.085-0.6,0.199   c-0.017,0.011-0.031,0.021-0.048,0.032c-0.088,0.063-0.163,0.134-0.229,0.22c-0.039,0.047-0.07,0.098-0.102,0.151   c-0.032,0.06-0.06,0.118-0.081,0.184c-0.017,0.047-0.048,0.084-0.059,0.134C64.89,65.577,64.208,67.343,63.257,68.988z    M82.196,67.003c-0.008,0-0.017,0.001-0.026,0.001c-2.616,0-5.062-1.329-6.464-3.476v-7.96c1.394-2.143,3.83-3.476,6.44-3.485   c2.985-0.004,5.641,1.648,6.91,4.175l-6.896,0.024c-0.301,0-0.589,0.12-0.801,0.334c-0.212,0.213-0.33,0.502-0.33,0.802   l0.016,4.259c0.003,0.624,0.509,1.128,1.134,1.128c0,0,0.001,0,0.002,0l6.897-0.021C87.828,65.317,85.179,66.994,82.196,67.003z"></path><path fill="#86efac" d="M47.487,60.588c-3.952,0-7.167,3.216-7.167,7.169c0,3.951,3.215,7.167,7.167,7.167   c3.953,0,7.168-3.216,7.168-7.167C54.655,63.804,51.44,60.588,47.487,60.588z M47.487,73.356c-3.087,0-5.598-2.513-5.598-5.599   c0-3.089,2.511-5.6,5.598-5.6s5.599,2.511,5.599,5.6C53.085,70.843,50.574,73.356,47.487,73.356z"></path></g></g><g id="SvgjsG1038" featurekey="0yvIkK-0" transform="matrix(3.706793358049154,0,0,3.706793358049154,105.22407654509054,-21.98211811289003)" fill="#86efac"><path d="M1.8 10.76 l1.2 0 l0 10.96 q0 1.62 -0.64 2.35 t-1.98 0.73 q-0.5 0 -0.98 -0.18 l0.18 -1.06 q0.38 0.16 0.78 0.16 q0.72 0 1.08 -0.43 t0.36 -1.49 l0 -11.04 z M2.4 6.199999999999999 q0.4 0 0.65 0.26 t0.25 0.64 t-0.25 0.64 t-0.65 0.26 q-0.38 0 -0.64 -0.26 t-0.26 -0.64 t0.26 -0.64 t0.64 -0.26 z M7.08 15.379999999999999 q0 1.66 1.04 2.72 t2.62 1.06 q1.64 0 2.65 -1.08 t1.01 -2.7 q0 -1.6 -1 -2.68 t-2.68 -1.1 q-1.62 0 -2.62 1.08 t-1.02 2.7 z M10.74 10.52 q2.12 0 3.48 1.38 t1.38 3.48 q0 2.14 -1.39 3.49 t-3.47 1.37 q-2.18 -0.02 -3.51 -1.4 t-1.35 -3.46 q0 -2.14 1.37 -3.49 t3.49 -1.37 z M22.4 10.52 q0.34 0 0.7 0.1 l-0.14 1.18 q-0.22 -0.08 -0.48 -0.08 q-1.46 0 -2.23 0.9 t-0.77 2.34 l0 5.04 l-1.2 0 l0 -6.74 q0 -0.2 -0.1 -2.5 l1.2 0 q0.04 1.38 0.08 1.62 q1.04 -1.86 2.94 -1.86 z M25.62 8.1 l1.2 0 l0 2.66 l2.64 0 l0 1.08 l-2.64 0 l0 6.04 q0 0.58 0.34 0.93 t0.94 0.35 q0.66 0 1.36 -0.32 l0.1 1.08 q-0.9 0.32 -1.58 0.32 q-1.18 0 -1.77 -0.66 t-0.59 -1.7 l0 -6.04 l-2 0 l0 -1.08 l2 0 l0 -2.66 z M38.84 14.6 q0 -1.26 -0.94 -2.13 t-2.28 -0.87 q-1.3 0 -2.24 0.87 t-1.1 2.13 l6.56 0 z M35.7 10.52 q1.92 0 3.12 1.24 t1.22 3.2 l0 0.72 l-7.76 0 q0.08 1.56 1.03 2.51 t2.47 0.97 q0.94 0 1.79 -0.45 t1.31 -1.19 l0.88 0.74 q-1.3 1.98 -4 1.98 q-2.12 -0.02 -3.39 -1.38 t-1.29 -3.5 q0 -2.08 1.31 -3.45 t3.31 -1.39 z M43.52 15.26 q0 1.52 1.07 2.57 t2.59 1.09 q1.5 0 2.56 -1.06 t1.1 -2.6 q0 -1.52 -1.08 -2.58 t-2.6 -1.08 q-1.52 0 -2.58 1.09 t-1.06 2.57 z M47.260000000000005 10.52 q2.36 0.02 3.5 1.8 l0.04 0 l0 -1.56 l1.2 0 l0 8.6 q0 2.7 -1.3 4.07 t-3.64 1.37 q-1.4 0 -2.62 -0.51 t-1.94 -1.43 l0.94 -0.88 q1.24 1.74 3.64 1.74 q3.72 0 3.72 -4.14 l0 -1.38 l-0.04 0 q-1.12 1.76 -3.5 1.8 q-2 0 -3.44 -1.37 t-1.5 -3.37 q0 -1.96 1.47 -3.34 t3.47 -1.4 z M55.720000000000006 17.44 q0 0.76 0.61 1.24 t1.51 0.48 q1.62 0 2.41 -0.85 t0.79 -2.31 l0 -0.64 l-1.44 0 q-1.84 0 -2.86 0.56 t-1.02 1.52 z M58.440000000000005 10.52 q1.86 0 2.76 0.86 t0.92 2.4 l0 2.74 q0 2.24 0.18 3.48 l-1.12 0 q-0.12 -0.62 -0.12 -1.5 l-0.04 0 q-1 1.74 -3.22 1.74 q-1.5 0 -2.38 -0.74 t-0.9 -2 q0 -1.54 1.33 -2.32 t3.71 -0.78 l1.48 0 l0 -0.54 q0 -1.14 -0.7 -1.7 t-1.9 -0.56 q-1.6 0 -2.82 1.04 l-0.7 -0.82 q0.66 -0.64 1.63 -0.97 t1.89 -0.33 z M67.84 10.52 q2.34 0 3.24 1.74 l-1.08 0.64 q-0.68 -1.3 -2.16 -1.3 q-0.8 0 -1.39 0.43 t-0.59 1.05 t0.5 0.99 t1.74 0.59 q1.84 0.32 2.54 0.95 t0.7 1.77 q0 1.3 -0.93 2.08 t-2.43 0.78 q-2.64 -0.02 -3.7 -1.88 l1.06 -0.72 q0.34 0.7 1.11 1.11 t1.57 0.41 q0.92 0 1.52 -0.51 t0.6 -1.19 q0 -0.62 -0.49 -1.02 t-2.13 -0.72 q-1.42 -0.28 -2.14 -0.86 t-0.72 -1.68 q0 -1.18 0.9 -1.92 t2.28 -0.74 z"></path></g></svg>